<svg id="Capa_1" data-name="Capa 1" xmlns="http://www.w3.org/2000/svg" xmlns:xlink="http://www.w3.org/1999/xlink" viewBox="0 0 303.77 287.4"><defs><style>.cls-1{fill:#fff;stroke:#000;stroke-miterlimit:10;}.cls-2,.cls-4{font-size:138.14px;font-family:Streetwear;}.cls-3{fill:url(#Cielo_que_se_atenúa);}.cls-4{fill:#ff8000;}</style><linearGradient id="Cielo_que_se_atenúa" x1="-7.48" y1="139.75" x2="318.48" y2="139.75" gradientTransform="translate(-14.25 14.8) rotate(-6.16)" gradientUnits="userSpaceOnUse"><stop offset="0" stop-color="#386cb0"/><stop offset="1" stop-color="#386caf" stop-opacity="0"/></linearGradient></defs><title>logoac</title><path class="cls-1" d="M204.25,163" transform="translate(20.15 0)"/><path class="cls-1" d="M101.14,130.76" transform="translate(20.15 0)"/><text class="cls-2" transform="matrix(1.01, -0.1, 0.1, 0.99, 15.66, 175.26)">AC</text><path class="cls-3" d="M181.43,71.58c-3.48,4.4-44.49,55-54.68,66.62-10.79,12.56-18,16.67-24,17.32-9.22,1-14.12-5.15-7.7-20.29,1.46-3.49,7-16.73,13.78-33.3l-20.39,2.2c-6.54,8.76-11.94,16.29-15.38,21.11-14.81,21.19-27.16,36.28-47.83,38.51-34.91,3.77-22.06-60.42,57.37-70.52C109.34,59.36,145,14,145,14l22.07-2.38s-35.13,85.49-39.94,97.27c-1.69,3.93-4.65,11.89-3.27,12.85,1.25,1.12,4.14-2.25,7.44-5.66,5-5,42.87-49.09,47.46-55C181.24,58,182.67,69.92,181.43,71.58ZM72.42,106c-41.88,7.3-60,43.85-46.29,42.37,6.29-.68,15-3.56,29.74-21.55C59,122.87,65,115.42,72.42,106ZM114,89.42c6.15-15,12.87-31.26,18.33-44.77C123.2,56.89,109.76,75,97.69,91.46,103.83,90.8,109.68,90,114,89.42Z" transform="translate(20.15 0)"/><path class="cls-3" d="M235.39,16.57c-10.89,1.17-31.68,18-47.63,50.85s-13.64,58.16,10,55.61c26.11-2.81,50.64-33.39,59.69-49,3.23-5.49,9.53,5.78,7.2,10.34C253.21,107,223.14,142.52,191.16,146s-59.41-28.18-27.69-83.71C187.83,19.62,220.11,5.85,236,4.13c27.23-2.94,22.91,36.85.36,53-10.63,7.54-16.43-3-16.43-3C237.2,39.85,246.28,15.39,235.39,16.57Z" transform="translate(20.15 0)"/><text class="cls-4" transform="translate(14.83 167.19) rotate(-6.16) scale(1.02 1)">AC</text></svg>