<svg id="Capa_1" data-name="Capa 1" xmlns="http://www.w3.org/2000/svg" xmlns:xlink="http://www.w3.org/1999/xlink" viewBox="0 0 228.35 306.65"><defs><style>.cls-1{fill:none;}.cls-2{fill:#7f4da2;}.cls-3{fill:#613b97;}.cls-4{fill:#a083bd;}.cls-5{fill:#98aed2;}.cls-6{fill:#c7b1d6;}.cls-7{fill:#7c4f84;}.cls-8{fill:#b48db7;}.cls-9{fill:#986c9e;}.cls-10{fill:url(#linear-gradient);}.cls-11{fill:url(#linear-gradient-2);}.cls-12{fill:url(#linear-gradient-3);}.cls-13{fill:url(#linear-gradient-4);}.cls-14{fill:url(#linear-gradient-5);}.cls-15{fill:url(#linear-gradient-6);}.cls-16{fill:url(#linear-gradient-7);}.cls-17{fill:url(#linear-gradient-8);}.cls-18{fill:url(#linear-gradient-9);}.cls-19{fill:url(#linear-gradient-10);}.cls-20{fill:url(#linear-gradient-11);}.cls-21{fill:url(#linear-gradient-12);}.cls-22{fill:url(#linear-gradient-13);}.cls-23{fill:url(#linear-gradient-14);}.cls-24{fill:url(#linear-gradient-15);}.cls-25{fill:url(#linear-gradient-16);}.cls-26{fill:url(#linear-gradient-17);}.cls-27{fill:url(#linear-gradient-18);}.cls-28{fill:url(#linear-gradient-19);}.cls-29{fill:url(#linear-gradient-20);}.cls-30{fill:url(#linear-gradient-21);}.cls-31{fill:url(#linear-gradient-22);}.cls-32{fill:url(#linear-gradient-23);}.cls-33{fill:url(#linear-gradient-24);}.cls-34{fill:url(#linear-gradient-25);}.cls-35{fill:url(#linear-gradient-26);}.cls-36{fill:url(#linear-gradient-27);}.cls-37{fill:url(#linear-gradient-28);}.cls-38{fill:url(#linear-gradient-29);}.cls-39{fill:url(#linear-gradient-30);}.cls-40{fill:url(#linear-gradient-31);}.cls-41{fill:url(#linear-gradient-32);}.cls-42{fill:url(#linear-gradient-33);}.cls-43{fill:url(#linear-gradient-34);}.cls-44{fill:url(#linear-gradient-35);}.cls-45{fill:url(#linear-gradient-36);}.cls-46{fill:url(#linear-gradient-37);}.cls-47{fill:url(#linear-gradient-38);}.cls-48{fill:url(#linear-gradient-39);}.cls-49{fill:url(#linear-gradient-40);}.cls-50{fill:url(#linear-gradient-41);}.cls-51{fill:url(#linear-gradient-42);}.cls-52{fill:url(#linear-gradient-43);}.cls-53{fill:url(#linear-gradient-44);}.cls-54{fill:url(#linear-gradient-45);}.cls-55{fill:url(#linear-gradient-46);}.cls-56{fill:url(#linear-gradient-47);}.cls-57{fill:url(#linear-gradient-48);}.cls-58{fill:url(#linear-gradient-49);}.cls-59{fill:url(#linear-gradient-50);}.cls-60{fill:url(#linear-gradient-51);}.cls-61{fill:url(#linear-gradient-52);}.cls-62{fill:url(#linear-gradient-53);}.cls-63{fill:url(#linear-gradient-54);}.cls-64{fill:url(#linear-gradient-55);}.cls-65{fill:url(#linear-gradient-56);}.cls-66{fill:url(#linear-gradient-57);}.cls-67{fill:url(#linear-gradient-58);}.cls-68{fill:url(#linear-gradient-59);}.cls-69{fill:url(#linear-gradient-60);}.cls-70{fill:url(#linear-gradient-61);}.cls-71{fill:url(#linear-gradient-62);}.cls-72{fill:url(#linear-gradient-63);}.cls-73{fill:url(#linear-gradient-64);}.cls-74{fill:url(#linear-gradient-65);}.cls-75{fill:url(#linear-gradient-66);}.cls-76{fill:url(#linear-gradient-67);}.cls-77{fill:url(#linear-gradient-68);}.cls-78{fill:url(#linear-gradient-69);}.cls-79{fill:url(#linear-gradient-70);}.cls-80{fill:url(#linear-gradient-71);}.cls-81{fill:url(#linear-gradient-72);}.cls-82{fill:#f7d835;}.cls-83{opacity:0.31;}.cls-84{fill:#a27faf;}.cls-85{fill:#956b9b;}.cls-86{fill:#190728;}.cls-87{fill:#f47c5d;}.cls-88,.cls-90{opacity:0.06;}.cls-88{fill:url(#linear-gradient-73);}.cls-89{fill:#dccbd8;}.cls-90{fill:url(#linear-gradient-74);}.cls-91{fill:#a1bedb;}.cls-92{fill:#8699c7;}.cls-93{clip-path:url(#clip-path);}.cls-94{fill:#1c3667;}.cls-95{fill:#2e1138;}.cls-96{fill:#562c77;}.cls-97{fill:#925f96;}.cls-98{fill:#3b0d59;}.cls-99{fill:#aa80a0;}.cls-100{fill:#452751;}.cls-101{fill:#c4a1b9;}.cls-102{fill:#f3991e;}.cls-103{fill:#f3b735;}.cls-104{fill:#f8d445;}.cls-105{fill:#fff;}.cls-106{fill:#d5e1e8;}.cls-107{fill:#a2d9e9;}.cls-108{fill:#33abcd;}.cls-109{fill:#6cc6dd;}.cls-110{fill:#283463;}.cls-111{fill:#e8be33;}.cls-112{fill:#f1ca23;}.cls-113{fill:#ec6379;}.cls-114{fill:#ad3447;}.cls-115{fill:#d84e64;}.cls-116{fill:#96c945;}.cls-117{fill:#244f25;}.cls-118{fill:#6d8a42;}.cls-119{fill:#e96f11;}.cls-120{fill:#f9871c;}.cls-121{fill:#fcae59;}.cls-122{fill:#ec8d9b;}.cls-123{fill:#761e24;}</style><linearGradient id="linear-gradient" x1="39.12" y1="155.38" x2="42.57" y2="155.38" gradientTransform="translate(29.94)" gradientUnits="userSpaceOnUse"><stop offset="0" stop-color="#dccbd8"/><stop offset="1" stop-color="#b48db7"/></linearGradient><linearGradient id="linear-gradient-2" x1="41.93" y1="157.01" x2="45.37" y2="157.01" xlink:href="#linear-gradient"/><linearGradient id="linear-gradient-3" x1="75.62" y1="176.61" x2="79.06" y2="176.61" xlink:href="#linear-gradient"/><linearGradient id="linear-gradient-4" x1="36.75" y1="156.54" x2="40.97" y2="156.54" xlink:href="#linear-gradient"/><linearGradient id="linear-gradient-5" x1="39.56" y1="158.17" x2="43.77" y2="158.17" xlink:href="#linear-gradient"/><linearGradient id="linear-gradient-6" x1="67.63" y1="174.5" x2="71.85" y2="174.5" xlink:href="#linear-gradient"/><linearGradient id="linear-gradient-7" x1="64.82" y1="172.86" x2="69.04" y2="172.86" xlink:href="#linear-gradient"/><linearGradient id="linear-gradient-8" x1="62.02" y1="171.23" x2="66.23" y2="171.23" xlink:href="#linear-gradient"/><linearGradient id="linear-gradient-9" x1="59.21" y1="169.6" x2="63.43" y2="169.6" xlink:href="#linear-gradient"/><linearGradient id="linear-gradient-10" x1="56.4" y1="167.97" x2="60.62" y2="167.97" xlink:href="#linear-gradient"/><linearGradient id="linear-gradient-11" x1="53.59" y1="166.33" x2="57.81" y2="166.33" xlink:href="#linear-gradient"/><linearGradient id="linear-gradient-12" x1="50.79" y1="164.7" x2="55" y2="164.7" xlink:href="#linear-gradient"/><linearGradient id="linear-gradient-13" x1="47.98" y1="163.07" x2="52.2" y2="163.07" xlink:href="#linear-gradient"/><linearGradient id="linear-gradient-14" x1="45.17" y1="161.43" x2="49.39" y2="161.43" xlink:href="#linear-gradient"/><linearGradient id="linear-gradient-15" x1="42.37" y1="159.8" x2="46.58" y2="159.8" xlink:href="#linear-gradient"/><linearGradient id="linear-gradient-16" x1="70.44" y1="176.94" x2="77.46" y2="176.94" xlink:href="#linear-gradient"/><linearGradient id="linear-gradient-17" x1="34.47" y1="158.26" x2="40.05" y2="158.26" xlink:href="#linear-gradient"/><linearGradient id="linear-gradient-18" x1="70.98" y1="179.09" x2="75.18" y2="179.09" gradientTransform="translate(56.98)" xlink:href="#linear-gradient"/><linearGradient id="linear-gradient-19" x1="32.18" y1="159.77" x2="38.39" y2="159.77" xlink:href="#linear-gradient"/><linearGradient id="linear-gradient-20" x1="61.08" y1="176" x2="65.3" y2="176" xlink:href="#linear-gradient"/><linearGradient id="linear-gradient-21" x1="58.04" y1="174.26" x2="62.26" y2="174.26" xlink:href="#linear-gradient"/><linearGradient id="linear-gradient-22" x1="55" y1="172.52" x2="59.22" y2="172.52" xlink:href="#linear-gradient"/><linearGradient id="linear-gradient-23" x1="51.96" y1="170.78" x2="56.18" y2="170.78" xlink:href="#linear-gradient"/><linearGradient id="linear-gradient-24" x1="48.92" y1="169.04" x2="53.14" y2="169.04" xlink:href="#linear-gradient"/><linearGradient id="linear-gradient-25" x1="45.88" y1="167.3" x2="50.1" y2="167.3" xlink:href="#linear-gradient"/><linearGradient id="linear-gradient-26" x1="42.84" y1="165.56" x2="47.06" y2="165.56" xlink:href="#linear-gradient"/><linearGradient id="linear-gradient-27" x1="39.8" y1="163.82" x2="44.02" y2="163.82" xlink:href="#linear-gradient"/><linearGradient id="linear-gradient-28" x1="36.76" y1="162.09" x2="40.98" y2="162.09" xlink:href="#linear-gradient"/><linearGradient id="linear-gradient-29" x1="64.09" y1="177.75" x2="68.31" y2="177.75" xlink:href="#linear-gradient"/><linearGradient id="linear-gradient-30" x1="66.85" y1="179.88" x2="72.9" y2="179.88" xlink:href="#linear-gradient"/><linearGradient id="linear-gradient-31" x1="29.9" y1="161.34" x2="36.93" y2="161.34" xlink:href="#linear-gradient"/><linearGradient id="linear-gradient-32" x1="35.52" y1="163.79" x2="39.73" y2="163.79" xlink:href="#linear-gradient"/><linearGradient id="linear-gradient-33" x1="60.78" y1="178.48" x2="65" y2="178.48" xlink:href="#linear-gradient"/><linearGradient id="linear-gradient-34" x1="57.97" y1="176.84" x2="62.19" y2="176.84" xlink:href="#linear-gradient"/><linearGradient id="linear-gradient-35" x1="55.17" y1="175.21" x2="59.38" y2="175.21" xlink:href="#linear-gradient"/><linearGradient id="linear-gradient-36" x1="52.36" y1="173.57" x2="56.58" y2="173.57" xlink:href="#linear-gradient"/><linearGradient id="linear-gradient-37" x1="49.55" y1="171.94" x2="53.77" y2="171.94" xlink:href="#linear-gradient"/><linearGradient id="linear-gradient-38" x1="46.75" y1="170.31" x2="50.96" y2="170.31" xlink:href="#linear-gradient"/><linearGradient id="linear-gradient-39" x1="43.94" y1="168.67" x2="48.15" y2="168.67" xlink:href="#linear-gradient"/><linearGradient id="linear-gradient-40" x1="41.13" y1="167.04" x2="45.35" y2="167.04" xlink:href="#linear-gradient"/><linearGradient id="linear-gradient-41" x1="38.32" y1="165.4" x2="42.54" y2="165.4" xlink:href="#linear-gradient"/><linearGradient id="linear-gradient-42" x1="63.79" y1="180.99" x2="70.61" y2="180.99" xlink:href="#linear-gradient"/><linearGradient id="linear-gradient-43" x1="27.62" y1="161.85" x2="31.84" y2="161.85" gradientTransform="translate(56.98)" xlink:href="#linear-gradient"/><linearGradient id="linear-gradient-44" x1="30.43" y1="163.48" x2="34.64" y2="163.48" gradientTransform="translate(56.98)" xlink:href="#linear-gradient"/><linearGradient id="linear-gradient-45" x1="33.23" y1="165.11" x2="37.45" y2="165.11" gradientTransform="translate(56.98)" xlink:href="#linear-gradient"/><linearGradient id="linear-gradient-46" x1="35.99" y1="166.74" x2="40.2" y2="166.74" gradientTransform="translate(56.98)" xlink:href="#linear-gradient"/><linearGradient id="linear-gradient-47" x1="38.85" y1="173.28" x2="59.91" y2="173.28" xlink:href="#linear-gradient"/><linearGradient id="linear-gradient-48" x1="58.5" y1="180.07" x2="61.8" y2="180.07" xlink:href="#linear-gradient"/><linearGradient id="linear-gradient-49" x1="61.31" y1="181.44" x2="65.52" y2="181.44" xlink:href="#linear-gradient"/><linearGradient id="linear-gradient-50" x1="64.11" y1="183.34" x2="67.41" y2="183.34" xlink:href="#linear-gradient"/><linearGradient id="linear-gradient-51" x1="68.02" y1="177.37" x2="72.22" y2="177.37" gradientTransform="translate(56.98)" xlink:href="#linear-gradient"/><linearGradient id="linear-gradient-52" x1="65.06" y1="175.65" x2="69.26" y2="175.65" gradientTransform="translate(56.98)" xlink:href="#linear-gradient"/><linearGradient id="linear-gradient-53" x1="62.1" y1="173.93" x2="66.3" y2="173.93" gradientTransform="translate(56.98)" xlink:href="#linear-gradient"/><linearGradient id="linear-gradient-54" x1="59.15" y1="172.21" x2="63.34" y2="172.21" gradientTransform="translate(56.98)" xlink:href="#linear-gradient"/><linearGradient id="linear-gradient-55" x1="56.19" y1="170.49" x2="60.38" y2="170.49" gradientTransform="translate(56.98)" xlink:href="#linear-gradient"/><linearGradient id="linear-gradient-56" x1="53.23" y1="168.77" x2="57.42" y2="168.77" gradientTransform="translate(56.98)" xlink:href="#linear-gradient"/><linearGradient id="linear-gradient-57" x1="50.27" y1="167.05" x2="54.46" y2="167.05" gradientTransform="translate(56.98)" xlink:href="#linear-gradient"/><linearGradient id="linear-gradient-58" x1="47.31" y1="165.33" x2="51.5" y2="165.33" gradientTransform="translate(56.98)" xlink:href="#linear-gradient"/><linearGradient id="linear-gradient-59" x1="44.35" y1="163.61" x2="48.54" y2="163.61" gradientTransform="translate(56.98)" xlink:href="#linear-gradient"/><linearGradient id="linear-gradient-60" x1="41.39" y1="161.9" x2="45.58" y2="161.9" gradientTransform="translate(56.98)" xlink:href="#linear-gradient"/><linearGradient id="linear-gradient-61" x1="38.43" y1="160.18" x2="42.62" y2="160.18" gradientTransform="translate(56.98)" xlink:href="#linear-gradient"/><linearGradient id="linear-gradient-62" x1="72.81" y1="174.97" x2="76.26" y2="174.97" xlink:href="#linear-gradient"/><linearGradient id="linear-gradient-63" x1="70" y1="173.34" x2="73.45" y2="173.34" xlink:href="#linear-gradient"/><linearGradient id="linear-gradient-64" x1="67.2" y1="171.7" x2="70.64" y2="171.7" xlink:href="#linear-gradient"/><linearGradient id="linear-gradient-65" x1="64.39" y1="170.07" x2="67.83" y2="170.07" xlink:href="#linear-gradient"/><linearGradient id="linear-gradient-66" x1="61.58" y1="168.43" x2="65.03" y2="168.43" xlink:href="#linear-gradient"/><linearGradient id="linear-gradient-67" x1="58.77" y1="166.8" x2="62.22" y2="166.8" xlink:href="#linear-gradient"/><linearGradient id="linear-gradient-68" x1="55.97" y1="165.16" x2="59.41" y2="165.16" xlink:href="#linear-gradient"/><linearGradient id="linear-gradient-69" x1="53.16" y1="163.53" x2="56.6" y2="163.53" xlink:href="#linear-gradient"/><linearGradient id="linear-gradient-70" x1="50.35" y1="161.89" x2="53.8" y2="161.89" xlink:href="#linear-gradient"/><linearGradient id="linear-gradient-71" x1="47.54" y1="160.26" x2="50.99" y2="160.26" xlink:href="#linear-gradient"/><linearGradient id="linear-gradient-72" x1="44.74" y1="158.62" x2="48.18" y2="158.62" xlink:href="#linear-gradient"/><linearGradient id="linear-gradient-73" x1="74.62" y1="113.56" x2="77.52" y2="134.66" gradientTransform="translate(56.98)" gradientUnits="userSpaceOnUse"><stop offset="0" stop-color="#fff"/><stop offset="0.15" stop-color="#d2c7d8"/><stop offset="0.31" stop-color="#a48fb2"/><stop offset="0.48" stop-color="#7f6092"/><stop offset="0.63" stop-color="#613c79"/><stop offset="0.77" stop-color="#4c2268"/><stop offset="0.9" stop-color="#3f125d"/><stop offset="1" stop-color="#3b0d59"/></linearGradient><linearGradient id="linear-gradient-74" x1="136.52" y1="149.44" x2="139.41" y2="170.54" xlink:href="#linear-gradient-73"/><clipPath id="clip-path" transform="translate(-27.04)"><polygon id="SVGID" class="cls-1" points="157.3 233.66 103.42 202.18 134.32 163.31 67.13 110.66 42.91 108.34 0 269.93 90.59 315.18 157.3 233.66"/></clipPath></defs><title>workspace</title><polygon class="cls-2" points="134.15 306.65 127.16 302.46 127.16 231.32 134.15 235.51 134.15 306.65"/><polygon class="cls-2" points="12.54 236.03 5.55 231.85 5.55 158.17 12.54 162.36 12.54 236.03"/><polygon class="cls-3" points="12.54 236.03 91.21 192.42 53.93 139.44 12.54 162.36 12.54 236.03"/><polygon class="cls-3" points="206.28 263.1 134.15 306.65 134.15 235.51 206.28 191.96 206.28 263.1"/><polygon class="cls-4" points="134 235.85 2.37 158.79 2.37 154.44 208.59 186.65 208.59 191.01 134 235.85"/><polygon class="cls-5" points="134 231.49 2.37 154.44 77.94 108.34 208.59 186.65 134 231.49"/><polygon class="cls-6" points="134 231.49 2.37 154.44 77.94 108.34 208.59 186.65 134 231.49"/><path class="cls-7" d="M83.76,163.91l38.55,22.42a2.21,2.21,0,0,0,2,.09L139.77,179c.5-.29,1-6.76.34-4.66L98.23,156.87a2.21,2.21,0,0,0-2-.09L83.62,161.7C83.11,162,83.17,163.57,83.76,163.91Z" transform="translate(-27.04)"/><path class="cls-8" d="M83.76,162.85l38.55,22.42a2.2,2.2,0,0,0,2,.08s17.54-10.45,16.06-11.42l-38.79-22c-.58-.34-4.81,2.13-5.31,2.43L83.62,161.7C83.11,162,83.17,162.51,83.76,162.85Z" transform="translate(-27.04)"/><polygon class="cls-9" points="71.32 156.86 69.06 155.55 70.25 154.86 72.51 156.17 71.32 156.86"/><polygon class="cls-9" points="74.13 158.49 71.87 157.18 73.06 156.49 75.32 157.8 74.13 158.49"/><polygon class="cls-9" points="68.95 158.24 66.69 156.93 68.65 155.79 70.91 157.1 68.95 158.24"/><polygon class="cls-9" points="71.76 159.87 69.5 158.56 71.46 157.42 73.72 158.73 71.76 159.87"/><polygon class="cls-9" points="107.4 178.33 105.45 179.46 100.38 176.52 100.38 176.04 107.4 177.85 107.4 178.33"/><polygon class="cls-9" points="70 159.22 68.04 160.36 64.41 158.25 66.36 157.12 70 159.22"/><polygon class="cls-9" points="66.37 162.05 62.13 159.58 64.08 158.44 68.33 160.91 66.37 162.05"/><polygon class="cls-9" points="90.27 175.95 88.01 174.63 89.96 173.5 92.22 174.81 90.27 175.95"/><polygon class="cls-9" points="102.84 180.98 100.88 182.12 96.79 179.74 102.84 180.5 102.84 180.98"/><polygon class="cls-9" points="64.91 163.85 59.84 160.91 61.8 159.77 66.87 162.72 64.91 163.85"/><polygon class="cls-9" points="67.72 165.49 65.46 164.17 67.41 163.03 69.67 164.35 67.72 165.49"/><polygon class="cls-9" points="90.18 178.55 87.92 177.24 89.87 176.1 92.13 177.41 90.18 178.55"/><polygon class="cls-9" points="98.6 183.45 93.74 180.62 93.74 180.14 100.55 181.83 100.55 182.31 98.6 183.45"/><polygon class="cls-9" points="68.24 168.45 65.98 167.13 67.94 166 70.2 167.31 68.24 168.45"/><polygon class="cls-9" points="89.85 178.74 87.89 179.88 68.79 168.77 68.79 168.29 89.85 178.26 89.85 178.74"/><polygon class="cls-9" points="90.7 181.51 88.44 180.19 88.44 179.72 91.74 180.43 91.74 180.91 90.7 181.51"/><polygon class="cls-9" points="93.51 183.14 91.25 181.83 91.25 181.35 95.46 181.53 95.46 182 93.51 183.14"/><polygon class="cls-9" points="96.31 184.77 94.06 183.46 94.06 182.98 97.35 183.69 97.35 184.17 96.31 184.77"/><rect class="cls-9" x="69.06" y="155.02" width="1.39" height="0.52"/><rect class="cls-9" x="71.61" y="155.69" width="0.9" height="0.4"/><rect class="cls-9" x="73.81" y="157.33" width="1.51" height="0.44"/><rect class="cls-9" x="71.87" y="156.7" width="1.54" height="0.48"/><rect class="cls-9" x="69.5" y="158.08" width="1.97" height="0.49"/><rect class="cls-9" x="72.31" y="158.24" width="1.41" height="0.5"/><rect class="cls-9" x="66.74" y="156.38" width="1.61" height="0.48"/><rect class="cls-9" x="68.79" y="156.6" width="2.12" height="0.5"/><rect class="cls-9" x="64.41" y="157.76" width="1.77" height="0.48"/><rect class="cls-9" x="66.22" y="158.74" width="3.77" height="0.49"/><rect class="cls-9" x="62.13" y="159.1" width="1.42" height="0.46"/><rect class="cls-9" x="65.23" y="160.42" width="3.1" height="0.49"/><rect class="cls-9" x="62.66" y="162.25" width="4.2" height="0.46"/><rect class="cls-9" x="59.84" y="160.42" width="1.2" height="0.49"/><rect class="cls-9" x="67.2" y="163.89" width="2.47" height="0.46"/><rect class="cls-9" x="65.46" y="163.68" width="1.53" height="0.49"/><polygon class="cls-10" points="71.32 156.38 69.06 155.07 70.25 154.38 72.51 155.69 71.32 156.38"/><polygon class="cls-11" points="74.13 158.02 71.87 156.7 73.06 156.01 75.32 157.33 74.13 158.02"/><polygon class="cls-9" points="107.82 178.08 105.56 176.77 105.56 176.29 109 176.92 109 177.4 107.82 178.08"/><polygon class="cls-12" points="107.82 177.61 105.56 176.29 106.74 175.6 109 176.92 107.82 177.61"/><polygon class="cls-13" points="68.95 157.76 66.69 156.45 68.65 155.31 70.91 156.63 68.95 157.76"/><polygon class="cls-14" points="71.76 159.4 69.5 158.08 71.46 156.94 73.72 158.26 71.76 159.4"/><polygon class="cls-9" points="99.83 176.2 97.57 174.88 97.57 174.41 101.79 174.58 101.79 175.06 99.83 176.2"/><polygon class="cls-15" points="99.83 175.72 97.57 174.41 99.53 173.27 101.79 174.58 99.83 175.72"/><polygon class="cls-9" points="97.02 174.56 94.77 173.25 94.77 172.78 98.98 172.95 98.98 173.43 97.02 174.56"/><polygon class="cls-16" points="97.02 174.09 94.77 172.78 96.72 171.64 98.98 172.95 97.02 174.09"/><polygon class="cls-9" points="94.22 172.93 91.96 171.62 91.96 171.14 96.17 171.32 96.17 171.79 94.22 172.93"/><polygon class="cls-17" points="94.22 172.46 91.96 171.14 93.91 170 96.17 171.32 94.22 172.46"/><polygon class="cls-9" points="91.41 171.3 89.15 169.99 89.15 169.51 93.37 169.69 93.37 170.16 91.41 171.3"/><polygon class="cls-18" points="91.41 170.82 89.15 169.51 91.11 168.37 93.37 169.69 91.41 170.82"/><polygon class="cls-9" points="88.6 169.67 86.34 168.35 86.34 167.88 90.56 168.05 90.56 168.53 88.6 169.67"/><polygon class="cls-19" points="88.6 169.19 86.34 167.88 88.3 166.74 90.56 168.05 88.6 169.19"/><polygon class="cls-9" points="85.8 168.03 83.54 166.72 83.54 166.25 87.75 166.42 87.75 166.9 85.8 168.03"/><polygon class="cls-20" points="85.8 167.56 83.54 166.25 85.49 165.11 87.75 166.42 85.8 167.56"/><polygon class="cls-9" points="82.99 166.4 80.73 165.09 80.73 164.61 84.94 164.79 84.94 165.26 82.99 166.4"/><polygon class="cls-21" points="82.99 165.93 80.73 164.61 82.69 163.47 84.94 164.79 82.99 165.93"/><polygon class="cls-9" points="80.18 164.77 77.92 163.46 77.92 162.98 82.14 163.16 82.14 163.63 80.18 164.77"/><polygon class="cls-22" points="80.18 164.29 77.92 162.98 79.88 161.84 82.14 163.16 80.18 164.29"/><polygon class="cls-9" points="77.37 163.14 75.11 161.82 75.11 161.35 79.33 161.52 79.33 162 77.37 163.14"/><polygon class="cls-23" points="77.37 162.66 75.11 161.35 77.07 160.21 79.33 161.52 77.37 162.66"/><polygon class="cls-9" points="74.57 161.5 72.31 160.19 72.31 159.71 76.52 159.89 76.52 160.37 74.57 161.5"/><polygon class="cls-24" points="74.57 161.03 72.31 159.71 74.26 158.58 76.52 159.89 74.57 161.03"/><polygon class="cls-25" points="107.4 177.85 105.45 178.99 100.38 176.04 102.34 174.9 107.4 177.85"/><polygon class="cls-26" points="70 158.75 68.04 159.89 64.41 157.78 66.36 156.64 70 158.75"/><polygon class="cls-9" points="103.16 180.31 100.9 179 100.9 179.48 103.16 180.79 105.12 179.65 105.12 179.18 103.16 180.31"/><path class="cls-27" d="M132.16,179.18l-2.26-1.32L128,179s2.24,1.33,2.24,1.33Z" transform="translate(-27.04)"/><polygon class="cls-28" points="66.37 161.57 62.13 159.1 64.08 157.97 68.33 160.44 66.37 161.57"/><polygon class="cls-9" points="93.28 177.22 91.02 175.91 91.02 176.38 93.28 177.7 95.24 176.56 95.24 176.09 93.28 177.22"/><polygon class="cls-29" points="95.24 176.09 92.98 174.77 91.02 175.91 93.28 177.22 95.24 176.09"/><polygon class="cls-9" points="90.24 175.48 87.98 174.17 87.98 174.65 90.24 175.96 92.2 174.82 92.2 174.35 90.24 175.48"/><polygon class="cls-30" points="92.2 174.35 89.94 173.03 87.98 174.17 90.24 175.48 92.2 174.35"/><polygon class="cls-9" points="87.2 173.75 84.94 172.43 84.94 172.91 87.2 174.22 89.16 173.08 89.16 172.61 87.2 173.75"/><polygon class="cls-31" points="89.16 172.61 86.9 171.29 84.94 172.43 87.2 173.75 89.16 172.61"/><polygon class="cls-9" points="84.16 172.01 81.9 170.69 81.9 171.17 84.16 172.48 86.12 171.34 86.12 170.87 84.16 172.01"/><polygon class="cls-32" points="86.12 170.87 83.86 169.55 81.9 170.69 84.16 172.01 86.12 170.87"/><polygon class="cls-9" points="81.12 170.27 78.86 168.95 78.86 169.43 81.12 170.74 83.08 169.61 83.08 169.13 81.12 170.27"/><polygon class="cls-33" points="83.08 169.13 80.82 167.81 78.86 168.95 81.12 170.27 83.08 169.13"/><polygon class="cls-9" points="78.08 168.53 75.82 167.21 75.82 167.69 78.08 169 80.04 167.87 80.04 167.39 78.08 168.53"/><polygon class="cls-34" points="80.04 167.39 77.78 166.08 75.82 167.21 78.08 168.53 80.04 167.39"/><polygon class="cls-9" points="75.04 166.79 72.78 165.47 72.78 165.95 75.04 167.27 77 166.13 77 165.65 75.04 166.79"/><polygon class="cls-35" points="77 165.65 74.74 164.34 72.78 165.47 75.04 166.79 77 165.65"/><polygon class="cls-9" points="72 165.05 69.74 163.74 69.74 164.21 72 165.53 73.96 164.39 73.96 163.91 72 165.05"/><polygon class="cls-36" points="73.96 163.91 71.7 162.6 69.74 163.74 72 165.05 73.96 163.91"/><polygon class="cls-9" points="68.96 163.31 66.7 162 66.7 162.47 68.96 163.79 70.92 162.65 70.92 162.17 68.96 163.31"/><polygon class="cls-37" points="70.92 162.17 68.66 160.86 66.7 162 68.96 163.31 70.92 162.17"/><polygon class="cls-9" points="96.29 178.97 94.03 177.66 94.03 178.14 96.29 179.45 98.25 178.31 98.25 177.84 96.29 178.97"/><polygon class="cls-38" points="98.25 177.84 95.99 176.52 94.03 177.66 96.29 178.97 98.25 177.84"/><polygon class="cls-39" points="102.84 180.5 100.88 181.64 96.79 179.26 98.75 178.13 102.84 180.5"/><polygon class="cls-40" points="64.91 163.38 59.84 160.43 61.8 159.29 66.87 162.24 64.91 163.38"/><polygon class="cls-41" points="67.72 165.01 65.46 163.7 67.41 162.56 69.67 163.87 67.72 165.01"/><polygon class="cls-9" points="92.98 179.71 90.72 178.39 90.72 178.87 92.98 180.18 94.94 179.04 94.94 178.57 92.98 179.71"/><polygon class="cls-42" points="94.94 178.57 92.68 177.25 90.72 178.39 92.98 179.71 94.94 178.57"/><polygon class="cls-9" points="90.18 178.07 87.92 176.76 87.92 177.23 90.18 178.55 92.13 177.41 92.13 176.93 90.18 178.07"/><polygon class="cls-43" points="92.13 176.93 89.87 175.62 87.92 176.76 90.18 178.07 92.13 176.93"/><polygon class="cls-9" points="87.37 176.44 85.11 175.12 85.11 175.6 87.37 176.91 89.33 175.77 89.33 175.3 87.37 176.44"/><polygon class="cls-44" points="89.33 175.3 87.07 173.98 85.11 175.12 87.37 176.44 89.33 175.3"/><polygon class="cls-9" points="84.56 174.8 82.3 173.49 82.3 173.96 84.56 175.28 86.52 174.14 86.52 173.66 84.56 174.8"/><polygon class="cls-45" points="86.52 173.66 84.26 172.35 82.3 173.49 84.56 174.8 86.52 173.66"/><polygon class="cls-9" points="81.75 173.17 79.49 171.85 79.49 172.33 81.75 173.64 83.71 172.5 83.71 172.03 81.75 173.17"/><polygon class="cls-46" points="83.71 172.03 81.45 170.71 79.49 171.85 81.75 173.17 83.71 172.03"/><polygon class="cls-9" points="78.95 171.53 76.69 170.22 76.69 170.69 78.95 172.01 80.9 170.87 80.9 170.39 78.95 171.53"/><polygon class="cls-47" points="80.9 170.39 78.64 169.08 76.69 170.22 78.95 171.53 80.9 170.39"/><polygon class="cls-9" points="76.14 169.9 73.88 168.58 73.88 169.06 76.14 170.37 78.1 169.24 78.1 168.76 76.14 169.9"/><polygon class="cls-48" points="78.1 168.76 75.84 167.44 73.88 168.58 76.14 169.9 78.1 168.76"/><polygon class="cls-9" points="73.33 168.26 71.07 166.95 71.07 167.42 73.33 168.74 75.29 167.6 75.29 167.12 73.33 168.26"/><polygon class="cls-49" points="75.29 167.12 73.03 165.81 71.07 166.95 73.33 168.26 75.29 167.12"/><polygon class="cls-9" points="70.52 166.63 68.27 165.31 68.27 165.79 70.52 167.1 72.48 165.97 72.48 165.49 70.52 166.63"/><polygon class="cls-50" points="72.48 165.49 70.22 164.18 68.27 165.31 70.52 166.63 72.48 165.49"/><polygon class="cls-51" points="98.6 182.97 93.74 180.14 95.69 179 100.55 181.83 98.6 182.97"/><path class="cls-9" d="M86.86,163.07l-2.26-1.31v.49s2.26,1.3,2.26,1.3l2-1.14v-.47Z" transform="translate(-27.04)"/><path class="cls-52" d="M86.56,160.62l-2,1.14,2.26,1.31,2-1.13Z" transform="translate(-27.04)"/><path class="cls-9" d="M89.67,164.71l-2.26-1.32v.47l2.26,1.32,2-1.14v-.47Z" transform="translate(-27.04)"/><path class="cls-53" d="M89.37,162.25l-2,1.14,2.26,1.32,2-1.14Z" transform="translate(-27.04)"/><path class="cls-9" d="M92.48,166.34,90.22,165v.47l2.26,1.33,2-1.14v-.48Z" transform="translate(-27.04)"/><path class="cls-54" d="M92.18,163.89l-2,1.13,2.26,1.32,2-1.14Z" transform="translate(-27.04)"/><path class="cls-9" d="M95.23,168,93,166.65v.46s2.26,1.33,2.26,1.33l2-1.14v-.47Z" transform="translate(-27.04)"/><path class="cls-55" d="M94.93,165.51l-2,1.14L95.23,168l2-1.14Z" transform="translate(-27.04)"/><polygon class="cls-56" points="89.85 178.26 87.89 179.4 68.79 168.29 70.75 167.15 89.85 178.26"/><polygon class="cls-57" points="90.7 181.03 88.44 179.72 89.48 179.12 91.74 180.43 90.7 181.03"/><polygon class="cls-58" points="93.51 182.67 91.25 181.35 93.2 180.21 95.46 181.53 93.51 182.67"/><polygon class="cls-59" points="96.31 184.3 94.06 182.98 95.09 182.38 97.35 183.69 96.31 184.3"/><polygon class="cls-9" points="100.2 178.6 97.94 177.28 97.94 177.76 100.2 179.07 102.16 177.93 102.16 177.46 100.2 178.6"/><path class="cls-60" d="M129.2,177.46l-2.26-1.32L125,177.27s2.24,1.33,2.24,1.33Z" transform="translate(-27.04)"/><polygon class="cls-9" points="97.24 176.88 94.98 175.56 94.98 176.04 97.24 177.35 99.2 176.22 99.2 175.74 97.24 176.88"/><path class="cls-61" d="M126.24,175.74,124,174.42l-1.93,1.13s2.24,1.33,2.24,1.33Z" transform="translate(-27.04)"/><polygon class="cls-9" points="94.28 175.16 92.02 173.84 92.02 174.32 94.28 175.63 96.24 174.5 96.24 174.02 94.28 175.16"/><path class="cls-62" d="M123.28,174,121,172.7l-1.93,1.13s2.24,1.33,2.24,1.33Z" transform="translate(-27.04)"/><polygon class="cls-9" points="91.32 173.44 89.06 172.12 89.06 172.6 91.32 173.91 93.28 172.78 93.28 172.3 91.32 173.44"/><path class="cls-63" d="M120.32,172.3,118.06,171l-1.93,1.13s2.24,1.33,2.24,1.33Z" transform="translate(-27.04)"/><polygon class="cls-9" points="88.36 171.72 86.1 170.4 86.1 170.88 88.36 172.19 90.32 171.06 90.32 170.58 88.36 171.72"/><path class="cls-64" d="M117.36,170.58l-2.25-1.31-1.94,1.12s2.24,1.33,2.24,1.33Z" transform="translate(-27.04)"/><polygon class="cls-9" points="85.4 170 83.14 168.69 83.14 169.16 85.4 170.48 87.36 169.34 87.36 168.86 85.4 170"/><path class="cls-65" d="M114.4,168.86l-2.26-1.31-1.93,1.12s2.24,1.33,2.24,1.33Z" transform="translate(-27.04)"/><polygon class="cls-9" points="82.44 168.28 80.19 166.97 80.19 167.44 82.44 168.76 84.4 167.62 84.4 167.14 82.44 168.28"/><path class="cls-66" d="M111.44,167.14l-2.25-1.31L107.25,167s2.24,1.33,2.24,1.33Z" transform="translate(-27.04)"/><polygon class="cls-9" points="79.48 166.56 77.22 165.25 77.22 165.72 79.48 167.04 81.44 165.9 81.44 165.42 79.48 166.56"/><path class="cls-67" d="M108.48,165.42l-2.25-1.31-1.94,1.12s2.24,1.33,2.24,1.33Z" transform="translate(-27.04)"/><polygon class="cls-9" points="76.53 164.84 74.27 163.53 74.27 164 76.53 165.32 78.48 164.18 78.48 163.7 76.53 164.84"/><path class="cls-68" d="M105.53,163.7l-2.26-1.31-1.94,1.12s2.24,1.33,2.24,1.33Z" transform="translate(-27.04)"/><polygon class="cls-9" points="73.56 163.12 71.31 161.81 71.31 162.28 73.56 163.6 75.52 162.46 75.52 161.98 73.56 163.12"/><path class="cls-69" d="M102.57,162l-2.26-1.31-1.94,1.12s2.24,1.33,2.24,1.33Z" transform="translate(-27.04)"/><polygon class="cls-9" points="70.61 161.4 68.35 160.09 68.35 160.56 70.61 161.88 72.56 160.74 72.56 160.26 70.61 161.4"/><path class="cls-70" d="M99.61,160.26,97.35,159l-1.94,1.13s2.24,1.32,2.24,1.32Z" transform="translate(-27.04)"/><polygon class="cls-9" points="105.01 176.45 102.75 175.14 102.75 174.66 106.2 175.28 106.2 175.76 105.01 176.45"/><polygon class="cls-71" points="105.01 175.97 102.75 174.66 103.94 173.97 106.2 175.28 105.01 175.97"/><polygon class="cls-9" points="102.2 174.81 99.94 173.5 99.94 173.02 103.39 173.65 103.39 174.13 102.2 174.81"/><polygon class="cls-72" points="102.2 174.34 99.94 173.02 101.13 172.33 103.39 173.65 102.2 174.34"/><polygon class="cls-9" points="99.4 173.18 97.14 171.87 97.14 171.39 100.58 172.01 100.58 172.49 99.4 173.18"/><polygon class="cls-73" points="99.4 172.7 97.14 171.39 98.32 170.7 100.58 172.01 99.4 172.7"/><polygon class="cls-9" points="96.59 171.54 94.33 170.23 94.33 169.75 97.77 170.38 97.77 170.85 96.59 171.54"/><polygon class="cls-74" points="96.59 171.07 94.33 169.75 95.52 169.06 97.77 170.38 96.59 171.07"/><polygon class="cls-9" points="93.78 169.91 91.52 168.6 91.52 168.12 94.97 168.74 94.97 169.22 93.78 169.91"/><polygon class="cls-75" points="93.78 169.43 91.52 168.12 92.71 167.43 94.97 168.74 93.78 169.43"/><polygon class="cls-9" points="90.97 168.28 88.72 166.96 88.72 166.49 92.16 167.11 92.16 167.59 90.97 168.28"/><polygon class="cls-76" points="90.97 167.8 88.72 166.49 89.9 165.79 92.16 167.11 90.97 167.8"/><polygon class="cls-9" points="88.17 166.64 85.91 165.33 85.91 164.85 89.35 165.47 89.35 165.95 88.17 166.64"/><polygon class="cls-77" points="88.17 166.16 85.91 164.85 87.09 164.16 89.35 165.47 88.17 166.16"/><polygon class="cls-9" points="85.36 165.01 83.1 163.69 83.1 163.22 86.55 163.84 86.55 164.32 85.36 165.01"/><polygon class="cls-78" points="85.36 164.53 83.1 163.22 84.29 162.53 86.55 163.84 85.36 164.53"/><polygon class="cls-9" points="82.55 163.37 80.29 162.06 80.29 161.58 83.74 162.21 83.74 162.68 82.55 163.37"/><polygon class="cls-79" points="82.55 162.9 80.29 161.58 81.48 160.89 83.74 162.21 82.55 162.9"/><polygon class="cls-9" points="79.75 161.74 77.48 160.42 77.48 159.95 80.93 160.57 80.93 161.05 79.75 161.74"/><polygon class="cls-80" points="79.75 161.26 77.48 159.95 78.67 159.26 80.93 160.57 79.75 161.26"/><polygon class="cls-9" points="76.94 160.1 74.68 158.79 74.68 158.31 78.12 158.94 78.12 159.41 76.94 160.1"/><polygon class="cls-81" points="76.94 159.63 74.68 158.31 75.86 157.62 78.12 158.94 76.94 159.63"/><polygon class="cls-82" points="57.99 158.74 84.39 143.49 68.46 134.29 42.05 149.54 57.99 158.74"/><path class="cls-8" d="M118.6,142.7l29.25,17s6.6-5,10.55-6.17l-31.09-18.08a45.21,45.21,0,0,0-10.52,6.1,20.54,20.54,0,0,0,1.81,1.14Z" transform="translate(-27.04)"/><g class="cls-83"><path class="cls-84" d="M118.61,142.67c2.49,1.33,5,2.63,7.45,4l3.7,2.05,3.67,2.1c2.46,1.39,4.9,2.8,7.32,4.25l3.64,2.15c1.22.72,2.41,1.47,3.62,2.2l-.46.27a6.19,6.19,0,0,1,.51-.52c.09-.08.2-.15.29-.22l.23-.15.92-.63c.6-.43,1.24-.8,1.88-1.19l1-.57c.31-.2.65-.36,1-.54l2-1c0,.05-1.89,1.16-1.89,1.16-.31.19-.64.36-1,.57l-.92.61c-.61.41-1.24.8-1.83,1.24l-1.78,1.28s-29.3-17-29.3-17Z" transform="translate(-27.04)"/></g><path class="cls-7" d="M158.4,153.54a45,45,0,0,0-10.55,6.13v2.17l10.59-6.15v-2.17Z" transform="translate(-27.04)"/><path class="cls-85" d="M118.6,142.7l-1.87-1.09c0,.73,0,1.45,0,2.17l31.13,18.1v-2.17Z" transform="translate(-27.04)"/><path class="cls-84" d="M135.44,133.93v12.85a1.07,1.07,0,0,0,.63.88,3.35,3.35,0,0,0,3,0,1.07,1.07,0,0,0,.63-.88V133.93Z" transform="translate(-27.04)"/><polygon class="cls-8" points="120.68 147.04 118.69 145.89 118.69 145.39 120.68 146.54 120.68 147.04"/><polygon class="cls-8" points="123.21 148.51 121.22 147.36 121.22 146.86 123.21 148.01 123.21 148.51"/><polygon class="cls-8" points="125.73 149.98 123.75 148.83 123.75 148.33 125.73 149.48 125.73 149.98"/><path class="cls-7" d="M160.06,113.38,106.39,82.16a1.2,1.2,0,0,0-.82-.19,10.86,10.86,0,0,0-1.54.85l.87,1.64v35.35a3.33,3.33,0,0,0,1.49,2.6l53,30.83.28,1.28,1.16-.71c.42-.06.71-.43.71-1.05V116A3.29,3.29,0,0,0,160.06,113.38Z" transform="translate(-27.04)"/><path class="cls-85" d="M158.82,154.35l-53.68-31.22a3.32,3.32,0,0,1-1.48-2.59V83.75a1.11,1.11,0,0,1,.37-.93,1,1,0,0,1,1.11.06l53.68,31.22a3.32,3.32,0,0,1,1.48,2.59v36.79C160.3,154.44,159.64,154.82,158.82,154.35Z" transform="translate(-27.04)"/><path class="cls-8" d="M159.68,116.33v35.38c0,.53-.4.74-.86.46L105.14,121a1.94,1.94,0,0,1-.86-1.51V84.11c0-.31.11-.51.31-.58a.57.57,0,0,1,.55.08l53.68,31.21A1.93,1.93,0,0,1,159.68,116.33Z" transform="translate(-27.04)"/><path class="cls-86" d="M159.68,116.33v35.38a.66.66,0,0,1-.56-.09L105.45,120.4a1.9,1.9,0,0,1-.86-1.5V83.52a.64.64,0,0,1,.55.08l53.67,31.22A1.88,1.88,0,0,1,159.68,116.33Z" transform="translate(-27.04)"/><polygon class="cls-8" points="98.36 99.48 79.19 88.42 79.19 86.5 98.36 97.56 98.36 99.48"/><polygon class="cls-8" points="113.7 108.34 104.6 103.09 104.6 101.17 113.7 106.42 113.7 108.34"/><polygon class="cls-8" points="88.13 101.15 79.19 95.99 79.19 94.07 88.13 99.23 88.13 101.15"/><polygon class="cls-8" points="93.63 104.32 89.77 102.09 89.77 100.17 93.63 102.4 93.63 104.32"/><polygon class="cls-8" points="98.45 107.11 94.87 105.04 94.87 103.12 98.45 105.19 98.45 107.11"/><polygon class="cls-8" points="89.77 106.32 79.19 100.21 79.19 98.3 89.77 104.4 89.77 106.32"/><polygon class="cls-87" points="94.77 109.2 91.13 107.1 91.13 105.18 94.77 107.29 94.77 109.2"/><polygon class="cls-87" points="94.69 113.39 79.19 104.44 79.19 102.52 94.69 111.47 94.69 113.39"/><polygon class="cls-8" points="99.24 116.01 94.08 113.03 94.08 111.12 99.24 114.09 99.24 116.01"/><polygon class="cls-8" points="104.77 119.2 100.56 116.77 100.56 114.86 104.77 117.28 104.77 119.2"/><polygon class="cls-8" points="89.44 114.58 79.19 108.66 79.19 106.74 89.44 112.66 89.44 114.58"/><polygon class="cls-8" points="94.41 117.44 90.85 115.39 90.85 113.47 94.41 115.53 94.41 117.44"/><polygon class="cls-8" points="90.22 119.25 79.19 112.89 79.19 110.97 90.22 117.33 90.22 119.25"/><polygon class="cls-8" points="94.13 121.51 91.13 119.77 91.13 117.86 94.13 119.59 94.13 121.51"/><polygon class="cls-87" points="100.51 125.19 95.38 122.23 95.38 120.31 100.51 123.27 100.51 125.19"/><polygon class="cls-8" points="89.69 123.17 79.19 117.11 79.19 115.19 89.69 121.25 89.69 123.17"/><polygon class="cls-87" points="94.99 126.23 90.26 123.5 90.26 121.58 94.99 124.31 94.99 126.23"/><polygon class="cls-8" points="105.11 106.48 79.19 91.52 79.19 89.6 105.11 104.56 105.11 106.48"/><polygon class="cls-8" points="121.56 115.98 107.5 107.86 107.5 105.94 121.56 114.06 121.56 115.98"/><polygon class="cls-8" points="128.26 151.45 126.28 150.3 126.28 149.8 128.26 150.96 128.26 151.45"/><polygon class="cls-8" points="125.99 150.09 124 148.94 124 148.44 125.99 149.6 125.99 150.09"/><path class="cls-84" d="M158,152.81c0,.49-.34.69-.76.44a1.67,1.67,0,0,1-.76-1.32c0-.49.34-.69.76-.44A1.67,1.67,0,0,1,158,152.81Z" transform="translate(-27.04)"/><path class="cls-8" d="M157.53,153.86a1.09,1.09,0,0,1-.58-.18,2.15,2.15,0,0,1-1-1.75,1,1,0,0,1,1.5-.88,2.18,2.18,0,0,1,1,1.76A1,1,0,0,1,157.53,153.86Zm-.6-2a1.2,1.2,0,0,0,.51.91,1.13,1.13,0,0,0-.49-.9Z" transform="translate(-27.04)"/><path class="cls-88" d="M159.68,116.16v35.17a.66.66,0,0,1-.56-.09L105.45,120a1.9,1.9,0,0,1-.86-1.5v-2a61.82,61.82,0,0,1,22.83-4.91C148.6,111.62,156.92,115.53,159.68,116.16Z" transform="translate(-27.04)"/><path class="cls-8" d="M180.5,178.57l29.25,17s6.6-5,10.55-6.17l-31.09-18.07a44.65,44.65,0,0,0-10.52,6.1c-.06,0,1.81,1.13,1.81,1.13Z" transform="translate(-27.04)"/><g class="cls-83"><path class="cls-84" d="M180.51,178.55c2.49,1.32,5,2.63,7.45,4l3.7,2.05,3.67,2.1q3.69,2.08,7.32,4.26l3.64,2.15c1.22.71,2.41,1.46,3.62,2.19l-.47.27a5,5,0,0,1,.52-.51,2,2,0,0,1,.29-.22l.23-.16.92-.62c.6-.43,1.24-.81,1.88-1.19l.95-.58c.31-.19.65-.35,1-.53l2-1s-1.89,1.16-1.89,1.16c-.31.19-.64.36-1,.57l-.92.61c-.61.41-1.24.8-1.83,1.24l-1.78,1.27s-29.3-17-29.3-17Z" transform="translate(-27.04)"/></g><path class="cls-7" d="M220.3,189.41a44.69,44.69,0,0,0-10.55,6.14v2.17l10.59-6.16v-2.17Z" transform="translate(-27.04)"/><path class="cls-85" d="M180.5,178.57l-1.87-1.09c0,.73,0,1.45,0,2.17l31.13,18.1v-2.17Z" transform="translate(-27.04)"/><path class="cls-84" d="M197.34,169.8v12.85a1.07,1.07,0,0,0,.63.88,3.29,3.29,0,0,0,3,0,1.07,1.07,0,0,0,.63-.88V169.8Z" transform="translate(-27.04)"/><polygon class="cls-8" points="182.57 182.91 180.59 181.76 180.59 181.26 182.57 182.42 182.57 182.91"/><polygon class="cls-8" points="185.1 184.38 183.12 183.23 183.12 182.73 185.1 183.89 185.1 184.38"/><polygon class="cls-8" points="187.63 185.86 185.65 184.7 185.65 184.2 187.63 185.36 187.63 185.86"/><path class="cls-7" d="M222,149.25,168.29,118a1.29,1.29,0,0,0-.82-.19,10.86,10.86,0,0,0-1.54.85l.87,1.64v35.36a3.3,3.3,0,0,0,1.49,2.59l53,30.83.28,1.29,1.16-.71c.42-.06.71-.44.71-1.06V151.84A3.33,3.33,0,0,0,222,149.25Z" transform="translate(-27.04)"/><path class="cls-85" d="M220.72,190.22,167,159a3.31,3.31,0,0,1-1.49-2.59V119.62a1.09,1.09,0,0,1,.38-.93,1,1,0,0,1,1.11.07L220.72,150a3.32,3.32,0,0,1,1.48,2.6v36.79C222.2,190.31,221.54,190.7,220.72,190.22Z" transform="translate(-27.04)"/><path class="cls-8" d="M221.58,152.2v35.39c0,.53-.4.73-.87.45L167,156.83a1.94,1.94,0,0,1-.86-1.51V120a.55.55,0,0,1,.31-.58.64.64,0,0,1,.55.08l53.67,31.22A1.88,1.88,0,0,1,221.58,152.2Z" transform="translate(-27.04)"/><path class="cls-86" d="M221.57,152.2v35.38a.64.64,0,0,1-.55-.09l-53.67-31.21a1.93,1.93,0,0,1-.87-1.51V119.4a.59.59,0,0,1,.56.08l53.67,31.21A1.93,1.93,0,0,1,221.57,152.2Z" transform="translate(-27.04)"/><path class="cls-89" d="M182,158.67a.72.72,0,0,1-.32-.08L171,152.41a.65.65,0,0,1-.33-.56.63.63,0,0,1,.33-.55l10.63-6.14a.61.61,0,0,1,.64,0l10.7,6.17a.65.65,0,0,1,0,1.12l-10.63,6.14A.73.73,0,0,1,182,158.67Zm-9.41-6.82,9.41,5.44,9.35-5.4-9.41-5.43Z" transform="translate(-27.04)"/><path class="cls-89" d="M182,150.1a.62.62,0,0,1-.32-.09L171,143.83a.63.63,0,0,1-.33-.55.65.65,0,0,1,.33-.56l10.63-6.14a.66.66,0,0,1,.64,0l10.7,6.18a.64.64,0,0,1,.32.56.62.62,0,0,1-.32.55L182.3,150A.63.63,0,0,1,182,150.1Zm-9.41-6.82,9.41,5.43,9.35-5.39-9.41-5.44Z" transform="translate(-27.04)"/><path class="cls-89" d="M182,158.67a.72.72,0,0,1-.32-.08L171,152.41a.67.67,0,0,1-.33-.55l0-8.58a.65.65,0,0,1,.32-.56.68.68,0,0,1,.65,0l10.69,6.18a.67.67,0,0,1,.33.55l0,8.58a.65.65,0,0,1-.32.56A.73.73,0,0,1,182,158.67Zm-10.05-7.19,9.41,5.43,0-7.08-9.41-5.43Z" transform="translate(-27.04)"/><path class="cls-89" d="M192.61,152.53a.59.59,0,0,1-.32-.09l-10.7-6.17a.68.68,0,0,1-.33-.56l0-8.57a.65.65,0,0,1,1-.56l10.69,6.18a.63.63,0,0,1,.33.55l0,8.58a.65.65,0,0,1-.64.64Zm-10.06-7.19,9.41,5.43,0-7.08-9.41-5.43Z" transform="translate(-27.04)"/><path class="cls-89" d="M182,158.67a.72.72,0,0,1-.32-.08.65.65,0,0,1-.32-.56l0-8.58a.63.63,0,0,1,.32-.55l10.7-6.18a.68.68,0,0,1,.65,0,.67.67,0,0,1,.32.56l0,8.58a.63.63,0,0,1-.32.55l-10.7,6.18A.72.72,0,0,1,182,158.67Zm.68-8.84,0,7.08,9.41-5.43,0-7.08Z" transform="translate(-27.04)"/><path class="cls-89" d="M203.47,170.83a.62.62,0,0,1-.32-.09l-10.7-6.17a.65.65,0,0,1,0-1.12l10.64-6.13a.61.61,0,0,1,.64,0l10.7,6.17a.67.67,0,0,1,.32.56.64.64,0,0,1-.32.55l-10.63,6.14A.66.66,0,0,1,203.47,170.83ZM194.06,164l9.41,5.43,9.35-5.39-9.41-5.44Z" transform="translate(-27.04)"/><path class="cls-89" d="M203.47,170.83a.62.62,0,0,1-.32-.09l-10.7-6.17a.64.64,0,0,1-.3-.43.66.66,0,0,1,.1-.51l10.64-14.71a.62.62,0,0,1,.71-.24.64.64,0,0,1,.45.61l.07,20.89a.64.64,0,0,1-.32.56A.63.63,0,0,1,203.47,170.83Zm-9.76-7,9.12,5.26-.06-17.79Z" transform="translate(-27.04)"/><path class="cls-89" d="M214.1,164.69a.62.62,0,0,1-.32-.09l-10.69-6.18a.65.65,0,0,1-.33-.55l0-8.57a.66.66,0,0,1,.44-.62.65.65,0,0,1,.72.24l10.73,14.75a.62.62,0,0,1,0,.8A.64.64,0,0,1,214.1,164.69Zm-10-7.2L211.8,162,204,151.28Z" transform="translate(-27.04)"/><polygon class="cls-8" points="190.16 187.33 188.18 186.17 188.18 185.68 190.16 186.83 190.16 187.33"/><polygon class="cls-8" points="187.89 185.97 185.9 184.81 185.9 184.32 187.89 185.47 187.89 185.97"/><path class="cls-84" d="M219.85,188.69c0,.48-.34.68-.76.44a1.71,1.71,0,0,1-.76-1.33c0-.49.34-.68.76-.44A1.69,1.69,0,0,1,219.85,188.69Z" transform="translate(-27.04)"/><path class="cls-8" d="M219.43,189.73a1.17,1.17,0,0,1-.58-.17,2.18,2.18,0,0,1-1-1.76,1,1,0,0,1,1.5-.87,2.17,2.17,0,0,1,1,1.76A.94.94,0,0,1,219.43,189.73Zm-.6-1.95a1.18,1.18,0,0,0,.51.91,1.15,1.15,0,0,0-.49-.9Z" transform="translate(-27.04)"/><path class="cls-90" d="M221.57,152v35.17a.65.65,0,0,1-.55-.1L167.35,155.9a1.93,1.93,0,0,1-.87-1.51v-2a61.63,61.63,0,0,1,22.84-4.91C210.5,147.5,218.81,151.41,221.57,152Z" transform="translate(-27.04)"/><path class="cls-91" d="M62.81,188.18l-5.2,21.29s-1.82,1.67-2.35,1.62c-.16-.06-.18-.21-.1-.48.48-1.55,1.74-2.37,2.06-4.38.23-1.46,3-12,4.44-17.65.46-1.72-.46-2.74-1.81-2l-2.05,1.13c-6.65,3.69-18,10.1-19.37,11.5-1.9,2-6,7.11-6,7.11s-.73.51-.82.19c-.05-.15,0-.48.43-1.14a62.49,62.49,0,0,1,5.23-6.28l.17-.16.39-.36.19-.17.19-.16.32-.24.37-.24,19.17-11.07,2.09-1.21a3.52,3.52,0,0,1,.57-.26,2.59,2.59,0,0,1,.74-.12C63,185.07,63.86,186.23,62.81,188.18Z" transform="translate(-27.04)"/><path class="cls-92" d="M61.66,188.58c-1.47,5.62-4.21,16.19-4.44,17.65-.32,2-1.58,2.83-2.06,4.38-.08.27-.06.42,0,.46-.49-.12-4-1.07-3.59-2.51s1.74-2.37,2-4.38c.22-1.36,2.63-10.66,4.14-16.47l2.05-1.13C61.2,185.84,62.12,186.86,61.66,188.58Z" transform="translate(-27.04)"/><path class="cls-91" d="M61.47,185.1a2,2,0,0,0-.74.12,3.52,3.52,0,0,0-.57.26l-2.09,1.21L38.9,197.76l-.27.17-.33.24-.28.23-.19.17-.39.36-.17.16A62.49,62.49,0,0,0,32,205.37c-.39.66-.48,1-.43,1.14s-3.31-1.95-3.31-1.95c-.29.05-.45-.14.18-1.24,0,0,4.58-6.29,6.87-7.61l21.26-12.28a2,2,0,0,1,1.6,0l1.19.62Z" transform="translate(-27.04)"/><polygon class="cls-5" points="46.64 226.47 46.38 241.96 44.93 240.42 46.64 226.47"/><g class="cls-93"><path class="cls-94" d="M101.56,287.5a1,1,0,0,1-.32.18Z" transform="translate(-27.04)"/><path class="cls-95" d="M99.12,288.83a1.67,1.67,0,0,1-.5,1.32,1.45,1.45,0,0,1-1.71,0,4.86,4.86,0,0,1-2.21-3.82,2,2,0,0,1,.18-.91,1.16,1.16,0,0,1,.66-.61,1.71,1.71,0,0,1,1.37.24,4.1,4.1,0,0,1,.65.49A5.3,5.3,0,0,1,99,288a3.76,3.76,0,0,1,.09.65C99.11,288.73,99.12,288.78,99.12,288.83Z" transform="translate(-27.04)"/><path class="cls-96" d="M99.29,287.77a2,2,0,0,1-.18.9A3.76,3.76,0,0,0,99,288a5.3,5.3,0,0,0-1.46-2.53,4.1,4.1,0,0,0-.65-.49,1.71,1.71,0,0,0-1.37-.24,1.16,1.16,0,0,0-.66.61v-.15a1.45,1.45,0,0,1,.83-1.52,1.69,1.69,0,0,1,1.31.2,3.75,3.75,0,0,1,.71.53A5.24,5.24,0,0,1,99.2,287,3.72,3.72,0,0,1,99.29,287.77Z" transform="translate(-27.04)"/><path class="cls-97" d="M102.05,286.17a2,2,0,0,1-.18.91,1.21,1.21,0,0,1-.31.42l-.32.18-2.13,1.23a1.83,1.83,0,0,0,0-.24,2,2,0,0,0,.18-.9,3.72,3.72,0,0,0-.09-.81,5.24,5.24,0,0,0-1.47-2.53,3.63,3.63,0,0,0-.64-.49,1.74,1.74,0,0,0-1.37-.24l2.39-1.39a1.46,1.46,0,0,1,1.74,0A4.85,4.85,0,0,1,102.05,286.17Z" transform="translate(-27.04)"/><path class="cls-98" d="M101.88,287.23a1.69,1.69,0,0,1-.5,1.33l-.31.18-2.45,1.41a1.57,1.57,0,0,0,.49-1.24l2.13-1.23.32-.18a1.21,1.21,0,0,0,.31-.42A.76.76,0,0,1,101.88,287.23Z" transform="translate(-27.04)"/><path class="cls-94" d="M48.75,257a1,1,0,0,1-.31.18Z" transform="translate(-27.04)"/><path class="cls-95" d="M46.31,258.34a1.71,1.71,0,0,1-.5,1.33,1.48,1.48,0,0,1-1.71-.05,4.9,4.9,0,0,1-2.21-3.83,2.08,2.08,0,0,1,.19-.91,1.09,1.09,0,0,1,.65-.6,1.67,1.67,0,0,1,1.37.24,3.31,3.31,0,0,1,.65.48,5.19,5.19,0,0,1,1.46,2.53,3.91,3.91,0,0,1,.1.66Z" transform="translate(-27.04)"/><path class="cls-96" d="M46.49,257.28a2.23,2.23,0,0,1-.18.91,3.91,3.91,0,0,0-.1-.66A5.19,5.19,0,0,0,44.75,255a3.31,3.31,0,0,0-.65-.48,1.7,1.7,0,0,0-1.36-.25,1.13,1.13,0,0,0-.66.61.76.76,0,0,1,0-.15,1.45,1.45,0,0,1,.84-1.52,1.66,1.66,0,0,1,1.31.21,3.62,3.62,0,0,1,.71.52,5.15,5.15,0,0,1,1.46,2.53A3.9,3.9,0,0,1,46.49,257.28Z" transform="translate(-27.04)"/><path class="cls-97" d="M49.25,255.68a2.2,2.2,0,0,1-.18.91,1.23,1.23,0,0,1-.32.42l-.31.18-2.13,1.23v-.23a2.23,2.23,0,0,0,.18-.91,3.9,3.9,0,0,0-.1-.81,5.15,5.15,0,0,0-1.46-2.53,3.69,3.69,0,0,0-.65-.49,1.73,1.73,0,0,0-1.37-.24l2.4-1.38a1.45,1.45,0,0,1,1.73,0A4.88,4.88,0,0,1,49.25,255.68Z" transform="translate(-27.04)"/><path class="cls-98" d="M49.07,256.75a1.63,1.63,0,0,1-.5,1.32l-.31.18-2.45,1.42a1.65,1.65,0,0,0,.5-1.25l2.13-1.23.31-.18a1.23,1.23,0,0,0,.32-.42Z" transform="translate(-27.04)"/><path class="cls-94" d="M48.75,287.5a1,1,0,0,1-.31.18Z" transform="translate(-27.04)"/><path class="cls-95" d="M46.31,288.83a1.67,1.67,0,0,1-.5,1.32,1.45,1.45,0,0,1-1.71,0,4.86,4.86,0,0,1-2.21-3.82,2,2,0,0,1,.19-.91,1.14,1.14,0,0,1,.65-.61,1.7,1.7,0,0,1,1.37.24,3.36,3.36,0,0,1,.65.49A5.15,5.15,0,0,1,46.21,288a3.8,3.8,0,0,1,.1.65Z" transform="translate(-27.04)"/><path class="cls-96" d="M46.49,287.77a2.18,2.18,0,0,1-.18.9,3.8,3.8,0,0,0-.1-.65,5.15,5.15,0,0,0-1.46-2.53,3.36,3.36,0,0,0-.65-.49,1.69,1.69,0,0,0-1.36-.24,1.13,1.13,0,0,0-.66.61.76.76,0,0,1,0-.15,1.45,1.45,0,0,1,.84-1.52,1.69,1.69,0,0,1,1.31.2,4.1,4.1,0,0,1,.71.53A5.15,5.15,0,0,1,46.39,287,3.74,3.74,0,0,1,46.49,287.77Z" transform="translate(-27.04)"/><path class="cls-97" d="M49.25,286.17a2.2,2.2,0,0,1-.18.91,1.23,1.23,0,0,1-.32.42l-.31.18-2.13,1.23v-.24a2.18,2.18,0,0,0,.18-.9,3.74,3.74,0,0,0-.1-.81,5.15,5.15,0,0,0-1.46-2.53,3.69,3.69,0,0,0-.65-.49,1.73,1.73,0,0,0-1.37-.24l2.4-1.39a1.45,1.45,0,0,1,1.73,0A4.86,4.86,0,0,1,49.25,286.17Z" transform="translate(-27.04)"/><path class="cls-98" d="M49.07,287.23a1.65,1.65,0,0,1-.5,1.33l-.31.18-2.45,1.41a1.61,1.61,0,0,0,.5-1.24l2.13-1.23.31-.18a1.23,1.23,0,0,0,.32-.42Z" transform="translate(-27.04)"/><path class="cls-94" d="M101.56,257a1,1,0,0,1-.32.18Z" transform="translate(-27.04)"/><path class="cls-95" d="M99.12,258.34a1.71,1.71,0,0,1-.5,1.33,1.48,1.48,0,0,1-1.71-.05,4.9,4.9,0,0,1-2.21-3.83,2.08,2.08,0,0,1,.18-.91,1.11,1.11,0,0,1,.66-.6,1.67,1.67,0,0,1,1.37.24,4,4,0,0,1,.65.48A5.35,5.35,0,0,1,99,257.53a3.87,3.87,0,0,1,.09.66C99.11,258.24,99.12,258.29,99.12,258.34Z" transform="translate(-27.04)"/><path class="cls-96" d="M99.29,257.28a2.08,2.08,0,0,1-.18.91,3.87,3.87,0,0,0-.09-.66A5.35,5.35,0,0,0,97.56,255a4,4,0,0,0-.65-.48,1.72,1.72,0,0,0-1.37-.25,1.16,1.16,0,0,0-.66.61v-.15a1.45,1.45,0,0,1,.83-1.52,1.66,1.66,0,0,1,1.31.21,3.34,3.34,0,0,1,.71.52,5.24,5.24,0,0,1,1.47,2.53A3.86,3.86,0,0,1,99.29,257.28Z" transform="translate(-27.04)"/><path class="cls-97" d="M102.05,255.68a2,2,0,0,1-.18.91,1.21,1.21,0,0,1-.31.42l-.32.18-2.13,1.23a1.65,1.65,0,0,0,0-.23,2.08,2.08,0,0,0,.18-.91,3.86,3.86,0,0,0-.09-.81,5.24,5.24,0,0,0-1.47-2.53,3.63,3.63,0,0,0-.64-.49,1.74,1.74,0,0,0-1.37-.24l2.39-1.38a1.46,1.46,0,0,1,1.74,0A4.87,4.87,0,0,1,102.05,255.68Z" transform="translate(-27.04)"/><path class="cls-98" d="M101.88,256.75a1.66,1.66,0,0,1-.5,1.32l-.31.18-2.45,1.42a1.61,1.61,0,0,0,.49-1.25l2.13-1.23.32-.18a1.21,1.21,0,0,0,.31-.42A.86.86,0,0,1,101.88,256.75Z" transform="translate(-27.04)"/><path class="cls-99" d="M100.44,250.9c-.26-.06-1.08-.75-1.42-.82-8.17-1.72-17.64.52-27.11,6s-19,14.19-27.23,25.39c-.67.91-.86,2-.45,2.4s1.22.62,1.42.82c.42.42,1.25,0,1.87-.81C55.3,273.25,64.31,265,73.32,259.8s18-7.3,25.7-5.67c.63.13,1.45-.45,1.86-1.33S101.11,251,100.44,250.9Z" transform="translate(-27.04)"/><path class="cls-99" d="M100.44,282.27c-8.17-11.16-17.64-19.85-27.11-25.33s-19-7.77-27.23-6c-.33.07-1.16.76-1.42.82-.67.13-.86,1-.45,1.87s1.25,1.49,1.87,1.36c7.78-1.64,16.79.51,25.8,5.73s17.95,13.43,25.7,24c.62.85,1.45,1.23,1.86.82.22-.21,1.14-.54,1.42-.82C101.31,284.26,101.11,283.18,100.44,282.27Z" transform="translate(-27.04)"/><path class="cls-100" d="M72.94,258.67a3,3,0,0,1-2.66,0c-.54-.32-.68-.78-.42-1.17V225.38l3.55,2.05V257.6C73.6,258,73.44,258.38,72.94,258.67Z" transform="translate(-27.04)"/><path class="cls-101" d="M73.68,226.47,72,240.42,73.42,242l0,2.61-40-22.87-.09-.26a3.4,3.4,0,0,1-.58-.26c-6.36-3.67-1.27-12.09-1.27-18.85s-4.26-18.34-4.42-20.8.67-4.35,1-4.14l41.44,23.92.3,1.65,1.53,8.29,2.36,12.82Z" transform="translate(-27.04)"/><path class="cls-97" d="M69.53,201.31s6.94,18.5,6.71,22.56-4.7,16-.32,18.5,24.23-11.44,27.47-13.31,11.76-3.41,11.76-.95-4.26-.19-7.58,1.73-27,18.93-33.38,15.26S72.92,233,72.92,226.25s-4.26-18.33-4.42-20.79S69.17,201.11,69.53,201.31Z" transform="translate(-27.04)"/><path class="cls-97" d="M107.8,214.15l-5.2,21.29s-1.82,1.68-2.35,1.62c-.16-.06-.18-.2-.1-.48.48-1.55,1.74-2.37,2.06-4.37.23-1.46,3-12,4.45-17.65.45-1.73-.47-2.74-1.82-2l-2,1.13c-6.65,3.68-18,10.09-19.37,11.5-1.89,2-6,7.11-6,7.11s-.72.5-.82.19c0-.15.05-.49.43-1.15a62.85,62.85,0,0,1,5.23-6.27l.17-.16.39-.37.2-.17.18-.15c.17-.14.25-.19.33-.25l.36-.24,19.17-11.07,2.09-1.2a3.25,3.25,0,0,1,.58-.26,2,2,0,0,1,.73-.12C107.6,211.13,108.24,212.34,107.8,214.15Z" transform="translate(-27.04)"/><path class="cls-101" d="M106.66,214.56c-1.48,5.62-4.22,16.19-4.45,17.65-.32,2-1.58,2.82-2.06,4.37-.08.28-.06.42,0,.47-.49-.13-4-1.08-3.59-2.52s1.74-2.37,2.05-4.37c.22-1.37,2.63-10.67,4.14-16.47l2-1.13C106.19,211.82,107.11,212.83,106.66,214.56Z" transform="translate(-27.04)"/><path class="cls-101" d="M106.46,211.08a2,2,0,0,0-.73.12,3.25,3.25,0,0,0-.58.26l-2.09,1.2L83.89,223.73l-.27.18c-.17.12-.25.17-.33.24l-.27.22-.2.17-.39.37-.17.16A62.85,62.85,0,0,0,77,231.34c-.38.66-.48,1-.43,1.15s-3.31-2-3.31-2c-.29.06-.45-.14.18-1.24,0,0,4.58-6.29,6.87-7.61l21.26-12.27a1.92,1.92,0,0,1,1.6,0l1.19.62Z" transform="translate(-27.04)"/></g><polygon class="cls-102" points="134.53 213.51 163.05 198.32 163.05 196.35 163.05 194.96 113.97 199.49 113.97 202.85 134.53 213.51"/><polygon class="cls-103" points="134.53 210.15 163.05 194.96 142.49 184.3 113.97 199.49 134.53 210.15"/><polygon class="cls-104" points="149.19 198.32 155.57 195.01 143.81 188.91 137.43 192.22 149.19 198.32"/><polygon class="cls-105" points="134.86 211 134.86 212.79 114.74 202.6 114.74 200.6 134.86 211"/><polygon class="cls-106" points="134.86 211 163.05 196.09 163.05 197.67 134.86 212.79 134.86 211"/><polygon class="cls-107" points="146.37 50.95 119.01 35.15 119.01 3.77 146.37 19.56 146.37 50.95"/><polygon class="cls-108" points="153.09 47.13 146.34 50.95 146.34 19.56 153.09 15.74 153.09 47.13"/><polygon class="cls-109" points="146.42 19.51 119.07 3.72 125.65 0 153 15.79 146.42 19.51"/><path class="cls-94" d="M155.84,23.24a3.29,3.29,0,0,1-.66,1.54,9.75,9.75,0,0,1,.75,3.06v3.94a4.5,4.5,0,0,0,.07.85,2.57,2.57,0,0,0,1.44,2l.31.18v4l-.31-.18a15.63,15.63,0,0,1-1.44-.94A8.71,8.71,0,0,1,152.35,31V27.08a4.65,4.65,0,0,0-.07-.87,2.57,2.57,0,0,0-1.44-2l-.31-.18V20.12l.31.18c.15.09.29.15.41.21a1.21,1.21,0,0,0,.37.1h.15a.37.37,0,0,0,.24-.09.76.76,0,0,0,.09-.09.8.8,0,0,0,.14-.26c0-.06,0-.11,0-.18a3.62,3.62,0,0,0,.07-.79V15.64c.26-2.51,1.38-3.29,3.65-2.37a12,12,0,0,1,1.44.72l.31.18v4l-.31-.18c-.91-.53-1.31-.39-1.44.3a3.6,3.6,0,0,0-.07.8V22.6C155.9,22.85,155.87,23.05,155.84,23.24Z" transform="translate(-27.04)"/><path class="cls-94" d="M163.63,31.58a3.33,3.33,0,0,1,.66-1.54,10,10,0,0,1-.76-3.05V23.42a4.54,4.54,0,0,0-.06-.85,2.57,2.57,0,0,0-1.44-2l-.31-.18v-4l.31.18a13.8,13.8,0,0,1,1.44.94,8.74,8.74,0,0,1,3.65,6.62v3.54a4.65,4.65,0,0,0,.07.87,2.56,2.56,0,0,0,1.44,2l.31.18v4l-.31-.18-.41-.2a1.66,1.66,0,0,0-.37-.11h-.15a.32.32,0,0,0-.24.09s-.06.05-.09.09a.71.71,0,0,0-.14.26.85.85,0,0,0,0,.17,3.72,3.72,0,0,0-.07.8v3.94c-.26,2.51-1.38,3.29-3.65,2.37a12,12,0,0,1-1.44-.72l-.31-.18v-4l.31.18c.91.52,1.31.39,1.44-.3a3.67,3.67,0,0,0,.06-.8V32.23Z" transform="translate(-27.04)"/><polygon class="cls-4" points="66.01 85.31 41.97 71.37 41.97 52.85 66.01 66.78 66.01 85.31"/><polygon class="cls-3" points="69.98 83.06 65.99 85.31 65.99 66.78 69.98 64.53 69.98 83.06"/><polygon class="cls-3" points="66.04 66.76 42 52.82 45.88 50.63 69.93 64.56 66.04 66.76"/><path class="cls-94" d="M74,66.31l2.65,4.17v.76l-2-1.15-2.83-4.53v-1l2.83-1.26,2,1.15v.73Z" transform="translate(-27.04)"/><path class="cls-94" d="M79.13,74.64l-2-1.13V72.9l5.36-7.48,2,1.12v.61Z" transform="translate(-27.04)"/><path class="cls-94" d="M85,69.31l2,1.16L89.86,75v1L87,77.26,85,76.1v-.75l2.66-1.12L85,70Z" transform="translate(-27.04)"/><polygon class="cls-108" points="221.89 155.66 195.61 140.49 195.61 110.34 221.89 125.51 221.89 155.66"/><polygon class="cls-94" points="228.35 152 221.86 155.66 221.86 125.51 228.35 121.84 228.35 152"/><polygon class="cls-94" points="221.94 125.46 195.67 110.29 201.99 106.72 228.27 121.89 221.94 125.46"/><path class="cls-110" d="M228.85,139l-.19-.11a5.61,5.61,0,0,1-3.11-5.43v-12c0-2.51.89-3.09,3.11-1.81l.19.11v2.39l-.19-.11c-.72-.42-.9-.15-.9.66v12.07a1.68,1.68,0,0,0,.9,1.71l.19.11Z" transform="translate(-27.04)"/><path class="cls-110" d="M242.93,144.72c.72.41.91.13.91-.66V132a1.67,1.67,0,0,0-.91-1.71l-.19-.11v-2.39l.19.11A5.58,5.58,0,0,1,246,133.3v12c0,2.51-.89,3.11-3.11,1.83l-.19-.11v-2.39Z" transform="translate(-27.04)"/><polygon class="cls-82" points="167.75 128.48 132.31 108.01 132.31 67.33 167.75 87.8 167.75 128.48"/><polygon class="cls-111" points="176.47 123.53 167.72 128.48 167.72 87.8 176.47 82.86 176.47 123.53"/><polygon class="cls-112" points="167.83 87.74 132.38 67.27 140.91 62.45 176.35 82.92 167.83 87.74"/><path class="cls-94" d="M169.49,100.07V96.25l2.43,1.4V86.19l4.15,2.4V102c0,1.11-.69,1.51-1.66.94Z" transform="translate(-27.04)"/><path class="cls-94" d="M177.21,94.35v-3.2c0-1.12.69-1.51,1.68-.94l7.24,4.19v1.87l-.65,1.59-4.1-2.36v.69l3.62,4.87a4.67,4.67,0,0,1,1.13,3.25v3.47c0,1.11-.69,1.5-1.66.94l-7.26-4.19v-3.82l4.75,2.74v-1l-3.63-4.84A4.77,4.77,0,0,1,177.21,94.35Z" transform="translate(-27.04)"/><polygon class="cls-113" points="113.59 90.67 84.56 73.9 84.56 40.59 113.59 57.35 113.59 90.67"/><polygon class="cls-114" points="120.73 86.62 113.56 90.67 113.56 57.35 120.73 53.3 120.73 86.62"/><polygon class="cls-115" points="113.65 57.3 84.62 40.54 91.61 36.6 120.64 53.36 113.65 57.3"/><path class="cls-94" d="M122.48,56.29v1.55L122,59.13l-3.36-1.94v6.24l3.89,2.25V68.8l-5.93-3.42A2.85,2.85,0,0,1,115.18,63V53.62c0-.91.56-1.23,1.37-.76Z" transform="translate(-27.04)"/><path class="cls-94" d="M123.1,60.83V58.2c0-.91.56-1.23,1.37-.76l5.94,3.42V62.4l-.53,1.3-3.36-1.94v.58l3,4a3.86,3.86,0,0,1,.93,2.66v2.84c0,.91-.57,1.23-1.36.77l-6-3.43V66L127,68.27v-.82l-3-4A3.89,3.89,0,0,1,123.1,60.83Z" transform="translate(-27.04)"/><path class="cls-94" d="M131,65.4V62.78c0-.92.57-1.24,1.38-.77l5.93,3.43V67l-.53,1.31-3.36-1.94v.57l3,4a3.86,3.86,0,0,1,.92,2.66V76.4c0,.91-.56,1.23-1.36.77L131,73.73V70.61l3.89,2.24V72l-3-4A3.89,3.89,0,0,1,131,65.4Z" transform="translate(-27.04)"/><polygon class="cls-116" points="196.87 83.28 169.43 67.44 169.43 35.94 196.87 51.79 196.87 83.28"/><polygon class="cls-117" points="203.62 79.45 196.84 83.28 196.84 51.79 203.62 47.96 203.62 79.45"/><polygon class="cls-118" points="196.93 51.74 169.48 35.89 176.09 32.16 203.53 48.01 196.93 51.74"/><path class="cls-94" d="M199.43,51.4V48.92c0-.87.53-1.17,1.3-.73l5.61,3.24v1.45l-.5,1.24-3.18-1.83v.53l2.81,3.77a3.63,3.63,0,0,1,.87,2.51v2.69c0,.86-.53,1.17-1.28.73l-5.63-3.24v-3l3.68,2.12v-.78l-2.81-3.75A3.65,3.65,0,0,1,199.43,51.4Z" transform="translate(-27.04)"/><path class="cls-94" d="M212.32,66.72l.65,1.52v1.47l-2.45-1.41L210,65.4l-1.53-.88a2.69,2.69,0,0,1-1.29-2.22V53.41c0-.86.53-1.17,1.29-.72l5.16,3A2.71,2.71,0,0,1,215,57.88v8.89c0,.86-.53,1.17-1.29.72Zm-1.87-9.94v5.9l1.28.74v-5.9Z" transform="translate(-27.04)"/><path class="cls-94" d="M216.14,57.09l3.21,1.85v8.88l3.25,1.88v3l-6.46-3.73Z" transform="translate(-27.04)"/><path class="cls-119" d="M155.27,171.64a3.43,3.43,0,0,0-3,3.66c0,2.59,2.41,4.91,3.5,5a3.47,3.47,0,0,0,3.49-1.27c1.09-1.17,2.09-4.76.3-6.28C158.57,171.91,157.69,171.4,155.27,171.64Z" transform="translate(-27.04)"/><path class="cls-120" d="M155.1,172.09c.45-.84-2.8.54-2.8,2.82s2.12,4.3,3.07,4.41a3,3,0,0,0,3.06-1.11c1-1,1.84-4.18.27-5.51C157.8,171.94,153.71,174.68,155.1,172.09Z" transform="translate(-27.04)"/><path class="cls-121" d="M153.82,173.72a1,1,0,0,0-.89,1.09,1.72,1.72,0,0,0,1,1.5,1,1,0,0,0,1-.38c.33-.35.62-1.42.09-1.87A1.41,1.41,0,0,0,153.82,173.72Z" transform="translate(-27.04)"/><path class="cls-118" d="M156,172.46s-.48-1.44-.22-1.93l.26-.5.44.26s-.42.25-.48.5S156,172.46,156,172.46Z" transform="translate(-27.04)"/><path class="cls-115" d="M145.75,193.24a7.46,7.46,0,0,1-6.76,0c-1.87-1.08-1.88-2.83,0-3.9a7.46,7.46,0,0,1,6.76,0C147.6,190.42,147.61,192.17,145.75,193.24Z" transform="translate(-27.04)"/><rect class="cls-115" x="110.54" y="182.95" width="9.56" height="8.24"/><path class="cls-122" d="M145.75,184.8a7.46,7.46,0,0,1-6.76,0c-1.87-1.08-1.88-2.83,0-3.9a7.46,7.46,0,0,1,6.76,0C147.6,182,147.61,183.73,145.75,184.8Z" transform="translate(-27.04)"/><path class="cls-115" d="M146.56,182.86a1.3,1.3,0,0,1-.28.76,2.88,2.88,0,0,1-.82.68,6.91,6.91,0,0,1-6.18,0,2.63,2.63,0,0,1-.84-.71,1.24,1.24,0,0,1-.28-.74,1.82,1.82,0,0,1,1.1-1.44,6.22,6.22,0,0,1,3.07-.72,6.38,6.38,0,0,1,3.11.73A1.88,1.88,0,0,1,146.56,182.86Z" transform="translate(-27.04)"/><path class="cls-123" d="M146.28,183.62a2.88,2.88,0,0,1-.82.68,6.91,6.91,0,0,1-6.18,0,2.63,2.63,0,0,1-.84-.71,2.54,2.54,0,0,1,.81-.68,6.22,6.22,0,0,1,3.07-.73,6.36,6.36,0,0,1,3.11.74A2.69,2.69,0,0,1,146.28,183.62Z" transform="translate(-27.04)"/><path class="cls-122" d="M147,185.3l-.72.42.86.55a3.38,3.38,0,0,1,1.41,2l.08.92c0,1-.41,1.43-1.18,1.35l-.45-.05-.72.42,1.11.95a2.23,2.23,0,0,0,1.93-2.06l0-1.48A3,3,0,0,0,148.1,186Z" transform="translate(-27.04)"/><path class="cls-113" d="M146.28,185.72v.77l.78.45a2.09,2.09,0,0,1,.95,1.64v.9c0,1-.51,1.54-1.28,1.46l-.45,0v.91l.93,0c.83,0,1.37-.6,1.39-1.64l0-1.48a2.89,2.89,0,0,0-1.18-2.29Z" transform="translate(-27.04)"/></svg>